<svg width="48" height="48" viewBox="0 0 48 48" fill="none" xmlns="http://www.w3.org/2000/svg">
<g id="car" clip-path="url(#clip0_6_452)">
<path id="Vector" d="M45.78 17.2L29.14 12.66C26.4 11.9163 23.4791 12.2528 20.98 13.6L13.66 17.6L3 19.6C2.2078 19.6 1.44776 19.9133 0.88572 20.4716C0.323682 21.0299 0.00528131 21.7878 0 22.58L0 28.58C0 29.3756 0.31607 30.1387 0.87868 30.7013C1.44129 31.2639 2.20435 31.58 3 31.58H5C5.19657 32.74 5.79748 33.7929 6.69622 34.5522C7.59496 35.3114 8.73348 35.728 9.91 35.728C11.0865 35.728 12.225 35.3114 13.1238 34.5522C14.0225 33.7929 14.6234 32.74 14.82 31.58H33C33.1966 32.74 33.7975 33.7929 34.6962 34.5522C35.595 35.3114 36.7335 35.728 37.91 35.728C39.0865 35.728 40.225 35.3114 41.1238 34.5522C42.0225 33.7929 42.6234 32.74 42.82 31.58H44.82C45.6157 31.58 46.3787 31.2639 46.9413 30.7013C47.5039 30.1387 47.82 29.3756 47.82 28.58V20C47.8112 19.3796 47.6104 18.7772 47.245 18.2758C46.8797 17.7743 46.3678 17.3985 45.78 17.2ZM36 16.62V17.58H34.6L33.82 16L36 16.62ZM22 15.38C23.924 14.3533 26.1538 14.0551 28.28 14.54H28.68H29.02L31.3 15.16L32.42 17.42H18L22 15.38ZM10 33.72C9.40666 33.72 8.82664 33.5441 8.33329 33.2144C7.83994 32.8848 7.45542 32.4162 7.22836 31.868C7.0013 31.3199 6.94189 30.7167 7.05764 30.1347C7.1734 29.5528 7.45912 29.0182 7.87868 28.5987C8.29824 28.1791 8.83279 27.8934 9.41473 27.7776C9.99667 27.6619 10.5999 27.7213 11.1481 27.9484C11.6962 28.1754 12.1648 28.5599 12.4944 29.0533C12.8241 29.5466 13 30.1267 13 30.72C13 31.5156 12.6839 32.2787 12.1213 32.8413C11.5587 33.4039 10.7956 33.72 10 33.72ZM38 33.72C37.4067 33.72 36.8266 33.5441 36.3333 33.2144C35.8399 32.8848 35.4554 32.4162 35.2284 31.868C35.0013 31.3199 34.9419 30.7167 35.0576 30.1347C35.1734 29.5528 35.4591 29.0182 35.8787 28.5987C36.2982 28.1791 36.8328 27.8934 37.4147 27.7776C37.9967 27.6619 38.5999 27.7213 39.148 27.9484C39.6962 28.1754 40.1648 28.5599 40.4944 29.0533C40.8241 29.5466 41 30.1267 41 30.72C41 31.5156 40.6839 32.2787 40.1213 32.8413C39.5587 33.4039 38.7957 33.72 38 33.72ZM46 23.58H45C44.7348 23.58 44.4804 23.6854 44.2929 23.8729C44.1054 24.0604 44 24.3148 44 24.58C44 24.8452 44.1054 25.0996 44.2929 25.2871C44.4804 25.4746 44.7348 25.58 45 25.58H46V28.58C46 28.8452 45.8946 29.0996 45.7071 29.2871C45.5196 29.4746 45.2652 29.58 45 29.58H42.86C42.6048 28.4851 41.9866 27.5087 41.106 26.8098C40.2254 26.1109 39.1343 25.7304 38.01 25.7304C36.8857 25.7304 35.7946 26.1109 34.914 26.8098C34.0334 27.5087 33.4152 28.4851 33.16 29.58H14.86C14.6048 28.4851 13.9866 27.5087 13.106 26.8098C12.2254 26.1109 11.1343 25.7304 10.01 25.7304C8.88574 25.7304 7.79456 26.1109 6.91397 26.8098C6.03338 27.5087 5.4152 28.4851 5.16 29.58H3C2.73478 29.58 2.48043 29.4746 2.29289 29.2871C2.10536 29.0996 2 28.8452 2 28.58V25.58H3C3.26522 25.58 3.51957 25.4746 3.70711 25.2871C3.89464 25.0996 4 24.8452 4 24.58C4 24.3148 3.89464 24.0604 3.70711 23.8729C3.51957 23.6854 3.26522 23.58 3 23.58H2V22.58C2.00745 22.4345 2.04428 22.2919 2.10827 22.161C2.17225 22.0301 2.26207 21.9135 2.37232 21.8182C2.48256 21.7229 2.61096 21.6509 2.74976 21.6065C2.88857 21.5621 3.03492 21.5463 3.18 21.56L14 19.58H37C37.2652 19.58 37.5196 19.4746 37.7071 19.2871C37.8946 19.0996 38 18.8452 38 18.58V17.16L45.26 19.16C45.4531 19.2102 45.6267 19.3171 45.7586 19.4667C45.8904 19.6164 45.9745 19.8021 46 20V23.58ZM31 25.58H17C16.7348 25.58 16.4804 25.6854 16.2929 25.8729C16.1054 26.0604 16 26.3148 16 26.58C16 26.8452 16.1054 27.0996 16.2929 27.2871C16.4804 27.4746 16.7348 27.58 17 27.58H31C31.2652 27.58 31.5196 27.4746 31.7071 27.2871C31.8946 27.0996 32 26.8452 32 26.58C32 26.3148 31.8946 26.0604 31.7071 25.8729C31.5196 25.6854 31.2652 25.58 31 25.58Z" fill="#344054"/>
</g>
<defs>
<clipPath id="clip0_6_452">
<rect width="48" height="48" fill="white"/>
</clipPath>
</defs>
</svg>
