<svg width="48" height="48" viewBox="0 0 48 48" fill="none" xmlns="http://www.w3.org/2000/svg">
<g id="location pin">
<g id="Layer 2">
<path id="Vector" d="M24 45C24.3383 44.998 24.6661 44.8817 24.93 44.67C25.5 44.16 40.5 32.07 40.5 19.5C40.5 15.1239 38.7616 10.9271 35.6673 7.83274C32.5729 4.73839 28.3761 3 24 3C19.6239 3 15.4271 4.73839 12.3327 7.83274C9.23839 10.9271 7.5 15.1239 7.5 19.5C7.5 32.07 22.5 44.16 23.07 44.67C23.3339 44.8817 23.6617 44.998 24 45ZM10.5 19.5C10.5 15.9196 11.9223 12.4858 14.4541 9.95406C16.9858 7.42232 20.4196 6 24 6C27.5804 6 31.0142 7.42232 33.5459 9.95406C36.0777 12.4858 37.5 15.9196 37.5 19.5C37.5 28.95 27.195 38.715 24 41.535C20.805 38.715 10.5 28.95 10.5 19.5Z" fill="#344054"/>
<path id="Vector_2" d="M31.5 19.5C31.5 18.0166 31.0601 16.5666 30.236 15.3332C29.4119 14.0999 28.2406 13.1386 26.8701 12.5709C25.4997 12.0032 23.9917 11.8547 22.5368 12.1441C21.082 12.4335 19.7456 13.1478 18.6967 14.1967C17.6478 15.2456 16.9335 16.582 16.6441 18.0368C16.3547 19.4917 16.5032 20.9997 17.0709 22.3701C17.6386 23.7406 18.5999 24.9119 19.8332 25.736C21.0666 26.5601 22.5166 27 24 27C25.9891 27 27.8968 26.2098 29.3033 24.8033C30.7098 23.3968 31.5 21.4891 31.5 19.5ZM19.5 19.5C19.5 18.61 19.7639 17.74 20.2584 16.9999C20.7529 16.2599 21.4557 15.6831 22.2779 15.3425C23.1002 15.002 24.005 14.9128 24.8779 15.0865C25.7508 15.2601 26.5526 15.6887 27.182 16.318C27.8113 16.9474 28.2399 17.7492 28.4135 18.6221C28.5872 19.495 28.4981 20.3998 28.1575 21.2221C27.8169 22.0443 27.2401 22.7472 26.5001 23.2416C25.76 23.7361 24.89 24 24 24C22.8065 24 21.6619 23.5259 20.818 22.682C19.9741 21.8381 19.5 20.6935 19.5 19.5Z" fill="#344054"/>
</g>
</g>
</svg>
