<svg width="32" height="32" viewBox="0 0 32 32" fill="none" xmlns="http://www.w3.org/2000/svg">
<g id="Chevron" clip-path="url(#clip0_6_393)">
<path id="Vector" d="M14.4 16L18.0832 11.9904C18.2339 11.8372 18.3183 11.6309 18.3183 11.416C18.3183 11.2011 18.2339 10.9948 18.0832 10.8416C18.0088 10.7666 17.9203 10.7071 17.8229 10.6665C17.7254 10.6259 17.6208 10.605 17.5152 10.605C17.4096 10.605 17.305 10.6259 17.2075 10.6665C17.1101 10.7071 17.0216 10.7666 16.9472 10.8416L12.456 15.424C12.305 15.5768 12.2204 15.7829 12.2204 15.9976C12.2204 16.2124 12.305 16.4185 12.456 16.5712L16.9472 21.1536C17.0214 21.229 17.1098 21.2888 17.2073 21.3297C17.3048 21.3706 17.4095 21.3916 17.5152 21.3916C17.6209 21.3916 17.7256 21.3706 17.8231 21.3297C17.9206 21.2888 18.009 21.229 18.0832 21.1536C18.2342 21.0009 18.3188 20.7948 18.3188 20.58C18.3188 20.3653 18.2342 20.1592 18.0832 20.0064L14.4 16ZM16 0.640015C13.9829 0.640015 11.9855 1.03731 10.122 1.80923C8.25842 2.58114 6.56515 3.71255 5.13884 5.13885C3.71253 6.56516 2.58112 8.25844 1.80921 10.122C1.0373 11.9856 0.639999 13.9829 0.639999 16C0.639999 24.4848 7.5168 31.36 16 31.36C24.4832 31.36 31.36 24.4848 31.36 16C31.36 11.9263 29.7417 8.01941 26.8612 5.13885C23.9806 2.2583 20.0737 0.640015 16 0.640015ZM16 29.3664C12.4548 29.3664 9.0548 27.9581 6.54796 25.4513C4.04113 22.9444 2.6328 19.5444 2.6328 15.9992C2.6328 12.454 4.04113 9.05401 6.54796 6.54718C9.0548 4.04034 12.4548 2.63201 16 2.63201C19.5452 2.63201 22.9452 4.04034 25.452 6.54718C27.9589 9.05401 29.3672 12.454 29.3672 15.9992C29.3672 19.5444 27.9589 22.9444 25.452 25.4513C22.9452 27.9581 19.5452 29.3664 16 29.3664Z" fill="#98A2B3"/>
</g>
<defs>
<clipPath id="clip0_6_393">
<rect width="32" height="32" fill="white" transform="matrix(-1 0 0 1 32 0)"/>
</clipPath>
</defs>
</svg>
