<svg width="32" height="32" viewBox="0 0 32 32" fill="none" xmlns="http://www.w3.org/2000/svg">
<g id="ant-design:instagram-filled">
<path id="Vector" d="M15.9967 11.5536C13.5484 11.5536 11.5503 13.5516 11.5503 16C11.5503 18.4483 13.5484 20.4463 15.9967 20.4463C18.445 20.4463 20.443 18.4483 20.443 16C20.443 13.5516 18.445 11.5536 15.9967 11.5536ZM29.3324 16C29.3324 14.1587 29.349 12.3341 29.2456 10.4962C29.1422 8.36146 28.6552 6.46685 27.0942 4.9058C25.5298 3.34141 23.6385 2.85775 21.5037 2.75434C19.6625 2.65094 17.8379 2.66762 16 2.66762C14.1588 2.66762 12.3342 2.65094 10.4963 2.75434C8.36153 2.85775 6.46691 3.34474 4.90586 4.9058C3.34147 6.47019 2.85781 8.36146 2.7544 10.4962C2.651 12.3375 2.66768 14.1621 2.66768 16C2.66768 17.8379 2.651 19.6658 2.7544 21.5037C2.85781 23.6385 3.3448 25.5331 4.90586 27.0941C6.47025 28.6585 8.36153 29.1422 10.4963 29.2456C12.3375 29.349 14.1621 29.3323 16 29.3323C17.8413 29.3323 19.6658 29.349 21.5037 29.2456C23.6385 29.1422 25.5331 28.6552 27.0942 27.0941C28.6586 25.5297 29.1422 23.6385 29.2456 21.5037C29.3524 19.6658 29.3324 17.8412 29.3324 16ZM15.9967 22.8412C12.2108 22.8412 9.1554 19.7859 9.1554 16C9.1554 12.2141 12.2108 9.15867 15.9967 9.15867C19.7826 9.15867 22.838 12.2141 22.838 16C22.838 19.7859 19.7826 22.8412 15.9967 22.8412ZM23.1182 10.4762C22.2342 10.4762 21.5204 9.76241 21.5204 8.87848C21.5204 7.99455 22.2342 7.28074 23.1182 7.28074C24.0021 7.28074 24.7159 7.99455 24.7159 8.87848C24.7162 9.08837 24.675 9.29626 24.5948 9.49022C24.5146 9.68419 24.3969 9.86043 24.2485 10.0088C24.1001 10.1573 23.9239 10.2749 23.7299 10.3551C23.5359 10.4353 23.3281 10.4765 23.1182 10.4762Z" fill="#FCFCFD"/>
</g>
</svg>
