<svg width="32" height="32" viewBox="0 0 32 32" fill="none" xmlns="http://www.w3.org/2000/svg">
<g id="akar-icons:linkedin-box-fill">
<path id="Vector" fill-rule="evenodd" clip-rule="evenodd" d="M2.66669 4.89457C2.66669 4.3037 2.90141 3.73703 3.31922 3.31922C3.73703 2.90141 4.3037 2.66669 4.89457 2.66669H27.103C27.3959 2.66621 27.6859 2.72349 27.9566 2.83526C28.2272 2.94702 28.4732 3.11107 28.6803 3.31801C28.8875 3.52495 29.0518 3.77072 29.1639 4.04125C29.2759 4.31178 29.3335 4.60175 29.3334 4.89457V27.1031C29.3337 27.3959 29.2762 27.686 29.1643 27.9566C29.0525 28.2273 28.8883 28.4732 28.6813 28.6804C28.4742 28.8875 28.2284 29.0518 27.9578 29.1639C27.6872 29.2759 27.3971 29.3335 27.1043 29.3334H4.89457C4.60189 29.3334 4.31209 29.2757 4.04171 29.1637C3.77134 29.0516 3.52568 28.8874 3.31879 28.6804C3.1119 28.4734 2.94782 28.2276 2.83593 27.9572C2.72404 27.6868 2.66653 27.3969 2.66669 27.1043V4.89457ZM13.2218 12.834H16.8327V14.6473C17.354 13.6049 18.6873 12.6667 20.6909 12.6667C24.5321 12.6667 25.4424 14.7431 25.4424 18.5527V25.6097H21.5552V19.4206C21.5552 17.2509 21.034 16.0267 19.7103 16.0267C17.874 16.0267 17.1103 17.3467 17.1103 19.4206V25.6097H13.2218V12.834ZM6.55517 25.4437H10.4437V12.6667H6.55517V25.4424V25.4437ZM11 8.49942C11.0074 8.83235 10.9481 9.1634 10.8258 9.47313C10.7034 9.78286 10.5204 10.065 10.2876 10.3031C10.0547 10.5411 9.77662 10.7303 9.46966 10.8594C9.1627 10.9886 8.83304 11.0551 8.50002 11.0551C8.167 11.0551 7.83734 10.9886 7.53038 10.8594C7.22342 10.7303 6.94534 10.5411 6.71247 10.3031C6.47959 10.065 6.29662 9.78286 6.17428 9.47313C6.05193 9.1634 5.99269 8.83235 6.00002 8.49942C6.01441 7.84591 6.28412 7.22401 6.7514 6.76692C7.21867 6.30982 7.84635 6.05386 8.50002 6.05386C9.15369 6.05386 9.78137 6.30982 10.2486 6.76692C10.7159 7.22401 10.9856 7.84591 11 8.49942Z" fill="#FCFCFD"/>
</g>
</svg>
