<svg width="32" height="32" viewBox="0 0 32 32" fill="none" xmlns="http://www.w3.org/2000/svg">
<g id="ant-design:twitter-circle-filled">
<path id="Vector" d="M16 2.66669C8.63693 2.66669 2.66669 8.63693 2.66669 16C2.66669 23.3631 8.63693 29.3334 16 29.3334C23.3631 29.3334 29.3334 23.3631 29.3334 16C29.3334 8.63693 23.3631 2.66669 16 2.66669ZM22.4078 12.7173C22.4167 12.8572 22.4167 13.003 22.4167 13.1459C22.4167 17.5149 19.0893 22.5476 13.0089 22.5476C11.1339 22.5476 9.39585 22.003 7.93157 21.0655C8.19942 21.0953 8.45538 21.1072 8.72919 21.1072C10.2768 21.1072 11.6994 20.5834 12.8334 19.6964C11.381 19.6667 10.1607 18.7143 9.74407 17.4048C10.253 17.4792 10.7113 17.4792 11.2351 17.3453C10.4873 17.1933 9.81512 16.7872 9.33281 16.1958C8.85049 15.6044 8.58778 14.8643 8.58931 14.1012V14.0595C9.02681 14.3066 9.54169 14.4584 10.0804 14.4792C9.62753 14.1774 9.25615 13.7685 8.99916 13.2888C8.74218 12.8091 8.60753 12.2734 8.60716 11.7292C8.60716 11.1131 8.76788 10.5506 9.05657 10.0625C9.88664 11.0844 10.9224 11.9201 12.0966 12.5154C13.2708 13.1107 14.5572 13.4523 15.872 13.5179C15.4048 11.2709 17.0834 9.4524 19.1012 9.4524C20.0536 9.4524 20.9107 9.85121 21.5149 10.4941C22.2619 10.3542 22.9762 10.0744 23.6131 9.69942C23.3661 10.4643 22.8482 11.1101 22.1607 11.5179C22.8274 11.4464 23.4703 11.2619 24.0655 11.003C23.6161 11.6637 23.0536 12.25 22.4078 12.7173Z" fill="#FCFCFD"/>
</g>
</svg>
