<svg width="24" height="24" viewBox="0 0 24 24" fill="none" xmlns="http://www.w3.org/2000/svg">
<g id="bi:arrow-up">
<path id="Vector" fill-rule="evenodd" clip-rule="evenodd" d="M1.5 12C1.5 11.8011 1.57902 11.6104 1.71967 11.4697C1.86032 11.329 2.05109 11.25 2.25 11.25H19.9395L15.219 6.53103C15.0782 6.3902 14.9991 6.19919 14.9991 6.00003C14.9991 5.80087 15.0782 5.60986 15.219 5.46903C15.3598 5.3282 15.5508 5.24908 15.75 5.24908C15.9492 5.24908 16.1402 5.3282 16.281 5.46903L22.281 11.469C22.3508 11.5387 22.4063 11.6215 22.4441 11.7126C22.4819 11.8037 22.5013 11.9014 22.5013 12C22.5013 12.0987 22.4819 12.1964 22.4441 12.2875C22.4063 12.3786 22.3508 12.4614 22.281 12.531L16.281 18.531C16.2113 18.6008 16.1285 18.6561 16.0374 18.6938C15.9463 18.7316 15.8486 18.751 15.75 18.751C15.5508 18.751 15.3598 18.6719 15.219 18.531C15.0782 18.3902 14.9991 18.1992 14.9991 18C14.9991 17.8009 15.0782 17.6099 15.219 17.469L19.9395 12.75H2.25C2.05109 12.75 1.86032 12.671 1.71967 12.5304C1.57902 12.3897 1.5 12.1989 1.5 12Z" fill="#FCFCFD"/>
</g>
</svg>
