<svg width="24" height="24" viewBox="0 0 24 24" fill="none" xmlns="http://www.w3.org/2000/svg">
<g id="bi:globe">
<path id="Vector" d="M2 12C2 9.34784 3.05357 6.8043 4.92893 4.92893C6.8043 3.05357 9.34784 2 12 2C14.6522 2 17.1957 3.05357 19.0711 4.92893C20.9464 6.8043 22 9.34784 22 12C22 14.6522 20.9464 17.1957 19.0711 19.0711C17.1957 20.9464 14.6522 22 12 22C9.34784 22 6.8043 20.9464 4.92893 19.0711C3.05357 17.1957 2 14.6522 2 12ZM11.375 3.34625C10.5375 3.60125 9.70625 4.37125 9.01625 5.665C8.78892 6.09512 8.59339 6.54131 8.43125 7H11.375V3.34625ZM7.1125 7C7.32084 6.33602 7.58859 5.69217 7.9125 5.07625C8.12863 4.66757 8.37824 4.27749 8.65875 3.91C7.11 4.55228 5.77751 5.62453 4.81875 7H7.1125ZM6.385 11.375C6.4225 10.2788 6.5575 9.2275 6.775 8.25H4.0925C3.6264 9.23131 3.34827 10.2913 3.2725 11.375H6.385ZM8.05875 8.25C7.81289 9.27475 7.67134 10.3218 7.63625 11.375H11.375V8.25H8.05875ZM12.625 8.25V11.375H16.3625C16.3279 10.3218 16.1867 9.27479 15.9412 8.25H12.625ZM7.6375 12.625C7.67218 13.6782 7.81331 14.7252 8.05875 15.75H11.375V12.625H7.6375ZM12.625 12.625V15.75H15.9412C16.175 14.7937 16.3238 13.74 16.3638 12.625H12.625ZM8.43125 17C8.60375 17.4825 8.8 17.93 9.01625 18.335C9.70625 19.6287 10.5387 20.3975 11.375 20.6538V17H8.43125ZM8.65875 20.09C8.37822 19.7225 8.12861 19.3324 7.9125 18.9237C7.5886 18.3078 7.32085 17.664 7.1125 17H4.81875C5.77746 18.3755 7.10997 19.4478 8.65875 20.09ZM6.775 15.75C6.54896 14.7226 6.4184 13.6765 6.385 12.625H3.2725C3.35 13.7375 3.63625 14.7913 4.0925 15.75H6.775ZM15.3413 20.09C16.89 19.4478 18.2225 18.3755 19.1812 17H16.8875C16.6791 17.664 16.4114 18.3078 16.0875 18.9237C15.8714 19.3325 15.6218 19.7226 15.3413 20.09ZM12.625 17V20.6538C13.4625 20.3988 14.2938 19.6287 14.9838 18.335C15.2 17.93 15.3962 17.4825 15.5687 17H12.625ZM17.225 15.75H19.9075C20.3638 14.7913 20.65 13.7375 20.7275 12.625H17.615C17.5816 13.6765 17.4511 14.7226 17.225 15.75ZM20.7275 11.375C20.6517 10.2913 20.3736 9.23132 19.9075 8.25H17.225C17.4425 9.2275 17.5775 10.2788 17.615 11.375H20.7275ZM16.0875 5.07625C16.3963 5.65625 16.665 6.30125 16.8875 7H19.1812C18.2225 5.62448 16.89 4.55222 15.3413 3.91C15.6138 4.265 15.8638 4.6575 16.0875 5.07625ZM15.5687 7C15.4066 6.54131 15.2111 6.09511 14.9838 5.665C14.2938 4.37125 13.4625 3.6025 12.625 3.34625V7H15.5687Z" fill="#FCFCFD"/>
</g>
</svg>
