<svg width="17" height="17" viewBox="0 0 17 17" fill="none" xmlns="http://www.w3.org/2000/svg">
<g id="Arrow - Down 3">
<g id="Iconly/Bold/Arrow---Down-2">
<g id="Arrow---Down-2">
<path id="Vector" d="M7.52749 11.5871C7.48883 11.5495 7.32349 11.4072 7.18749 11.2748C6.33216 10.498 4.93216 8.47171 4.50483 7.41115C4.43616 7.25008 4.29083 6.84287 4.28149 6.6253C4.28149 6.41683 4.32949 6.2181 4.42683 6.02845C4.56283 5.79205 4.77683 5.60241 5.02949 5.4985C5.20483 5.4316 5.72949 5.32769 5.73883 5.32769C6.31283 5.22378 7.24549 5.16663 8.27616 5.16663C9.25816 5.16663 10.1528 5.22378 10.7355 5.30886C10.7448 5.3186 11.3968 5.42251 11.6202 5.53617C12.0282 5.74464 12.2815 6.15185 12.2815 6.58764V6.6253C12.2715 6.90912 12.0182 7.50597 12.0088 7.50597C11.5808 8.50938 10.2495 10.4889 9.36483 11.2845C9.36483 11.2845 9.13749 11.5086 8.99549 11.606C8.79149 11.758 8.53883 11.8333 8.28616 11.8333C8.00416 11.8333 7.74149 11.7482 7.52749 11.5871Z" fill="#667085"/>
</g>
</g>
</g>
</svg>
