<svg width="32" height="32" viewBox="0 0 32 32" fill="none" xmlns="http://www.w3.org/2000/svg">
<g id="Chevron" clip-path="url(#clip0_6_391)">
<path id="Vector" d="M17.6 16L13.9168 11.9904C13.7661 11.8372 13.6817 11.6309 13.6817 11.416C13.6817 11.2011 13.7661 10.9948 13.9168 10.8416C13.9912 10.7666 14.0797 10.7071 14.1772 10.6665C14.2746 10.6259 14.3792 10.605 14.4848 10.605C14.5904 10.605 14.695 10.6259 14.7925 10.6665C14.89 10.7071 14.9784 10.7666 15.0528 10.8416L19.544 15.424C19.695 15.5768 19.7796 15.7829 19.7796 15.9976C19.7796 16.2124 19.695 16.4185 19.544 16.5712L15.0528 21.1536C14.9787 21.229 14.8903 21.2888 14.7927 21.3297C14.6952 21.3706 14.5905 21.3916 14.4848 21.3916C14.3791 21.3916 14.2744 21.3706 14.1769 21.3297C14.0794 21.2888 13.991 21.229 13.9168 21.1536C13.7659 21.0009 13.6812 20.7948 13.6812 20.58C13.6812 20.3653 13.7659 20.1592 13.9168 20.0064L17.6 16ZM16 0.640015C18.0171 0.640015 20.0145 1.03731 21.878 1.80923C23.7416 2.58114 25.4349 3.71255 26.8612 5.13885C28.2875 6.56516 29.4189 8.25844 30.1908 10.122C30.9627 11.9856 31.36 13.9829 31.36 16C31.36 24.4848 24.4832 31.36 16 31.36C7.51682 31.36 0.640015 24.4848 0.640015 16C0.640015 11.9263 2.2583 8.01941 5.13885 5.13885C8.01941 2.2583 11.9263 0.640015 16 0.640015ZM16 29.3664C19.5452 29.3664 22.9452 27.9581 25.4521 25.4513C27.9589 22.9444 29.3672 19.5444 29.3672 15.9992C29.3672 12.454 27.9589 9.05401 25.4521 6.54718C22.9452 4.04034 19.5452 2.63201 16 2.63201C12.4548 2.63201 9.05481 4.04034 6.54798 6.54718C4.04114 9.05401 2.63281 12.454 2.63281 15.9992C2.63281 19.5444 4.04114 22.9444 6.54798 25.4513C9.05481 27.9581 12.4548 29.3664 16 29.3664Z" fill="#98A2B3"/>
</g>
<defs>
<clipPath id="clip0_6_391">
<rect width="32" height="32" fill="white"/>
</clipPath>
</defs>
</svg>
