<svg width="48" height="48" viewBox="0 0 48 48" fill="none" xmlns="http://www.w3.org/2000/svg">
<g id="Touchscreen">
<path id="Vector" d="M38.85 26.5C38.2938 25.9389 37.568 25.5769 36.7851 25.4703C36.0023 25.3636 35.2061 25.5182 34.52 25.91C34.3677 25.3216 34.0701 24.781 33.6545 24.3375C33.2388 23.8941 32.7186 23.5621 32.1413 23.372C31.564 23.1819 30.9483 23.1398 30.3505 23.2495C29.7528 23.3592 29.1921 23.6173 28.72 24C28.2264 23.2736 27.4843 22.7528 26.6334 22.5354C25.7825 22.3181 24.8815 22.4193 24.1 22.82V17C24.098 16.5228 23.9995 16.0508 23.8105 15.6126C23.6215 15.1744 23.3458 14.7789 23 14.45C22.489 13.9583 21.8459 13.6261 21.1492 13.494C20.4525 13.3618 19.7324 13.4355 19.0769 13.706C18.4214 13.9765 17.8589 14.432 17.4581 15.017C17.0573 15.602 16.8356 16.2911 16.82 17V33C16.8778 35.9128 18.0343 38.6962 20.0577 40.7923C22.0811 42.8885 24.822 44.1425 27.7309 44.3031C30.6399 44.4638 33.5021 43.5191 35.744 41.6585C37.9859 39.7979 39.4418 37.1588 39.82 34.27C39.97 33.42 39.82 31.04 39.9 30.15C40 28.89 39.89 27.41 38.85 26.5ZM28.42 42.5C25.9852 42.5327 23.6313 41.6262 21.8473 39.9689C20.0634 38.3115 18.9864 36.0306 18.84 33.6V17C18.8418 16.6764 18.9394 16.3606 19.1203 16.0923C19.3013 15.824 19.5576 15.6152 19.8569 15.4923C20.1563 15.3693 20.4853 15.3377 20.8026 15.4013C21.1199 15.465 21.4112 15.6211 21.64 15.85C21.7897 16.0012 21.9076 16.1808 21.9866 16.3784C22.0656 16.5759 22.1042 16.7873 22.1 17V31.08C22.1 31.3452 22.2054 31.5996 22.3929 31.7871C22.5804 31.9746 22.8348 32.08 23.1 32.08C23.3652 32.08 23.6196 31.9746 23.8071 31.7871C23.9946 31.5996 24.1 31.3452 24.1 31.08V26.08C24.1322 25.6685 24.3184 25.2842 24.6215 25.0039C24.9246 24.7236 25.3222 24.568 25.735 24.568C26.1478 24.568 26.5454 24.7236 26.8485 25.0039C27.1516 25.2842 27.3378 25.6685 27.37 26.08V31.19C27.37 31.4552 27.4754 31.7096 27.6629 31.8971C27.8504 32.0846 28.1048 32.19 28.37 32.19C28.6352 32.19 28.8896 32.0846 29.0771 31.8971C29.2646 31.7096 29.37 31.4552 29.37 31.19V26.8C29.37 26.365 29.5428 25.9479 29.8504 25.6403C30.1579 25.3328 30.5751 25.16 31.01 25.16C31.445 25.16 31.8621 25.3328 32.1697 25.6403C32.4772 25.9479 32.65 26.365 32.65 26.8V31.14C32.65 31.4052 32.7554 31.6596 32.9429 31.8471C33.1304 32.0346 33.3848 32.14 33.65 32.14C33.9152 32.14 34.1696 32.0346 34.3571 31.8471C34.5446 31.6596 34.65 31.4052 34.65 31.14V29.07C34.6518 28.7464 34.7494 28.4306 34.9303 28.1623C35.1113 27.894 35.3676 27.6852 35.6669 27.5623C35.9663 27.4393 36.2953 27.4077 36.6126 27.4713C36.9299 27.535 37.2212 27.6911 37.45 27.92C38.07 28.43 37.91 29.49 37.93 30.2V33.05C37.93 34.2984 37.6839 35.5346 37.2059 36.6878C36.7279 37.8411 36.0272 38.8888 35.144 39.7711C34.2608 40.6533 33.2123 41.3529 32.0586 41.8297C30.9048 42.3066 29.6684 42.5513 28.42 42.55V42.5ZM18.3 9.76C18.2554 9.63423 18.1862 9.51866 18.0963 9.42007C18.0063 9.32149 17.8976 9.2419 17.7765 9.18599C17.6553 9.13008 17.5242 9.09897 17.3909 9.09451C17.2575 9.09004 17.1246 9.11231 17 9.16C15.6384 9.66364 14.4632 10.5715 13.6321 11.7619C12.801 12.9522 12.3536 14.3682 12.35 15.82C12.35 16.0852 12.4554 16.3396 12.6429 16.5271C12.8304 16.7146 13.0848 16.82 13.35 16.82C13.6152 16.82 13.8696 16.7146 14.0571 16.5271C14.2446 16.3396 14.35 16.0852 14.35 15.82C14.3446 14.7682 14.6646 13.7404 15.2662 12.8775C15.8677 12.0146 16.7213 11.3589 17.71 11C17.9481 10.9077 18.1418 10.7278 18.2515 10.4973C18.3612 10.2667 18.3786 10.0029 18.3 9.76ZM23.71 9.16C23.4784 9.1127 23.2374 9.149 23.03 9.26246C22.8226 9.37592 22.6621 9.55921 22.577 9.77978C22.4919 10.0004 22.4877 10.244 22.5651 10.4673C22.6425 10.6907 22.7966 10.8794 23 11C23.9786 11.3598 24.8234 12.0109 25.4206 12.8656C26.0177 13.7202 26.3386 14.7374 26.34 15.78C26.34 16.0452 26.4454 16.2996 26.6329 16.4871C26.8204 16.6746 27.0748 16.78 27.34 16.78C27.6052 16.78 27.8596 16.6746 28.0471 16.4871C28.2346 16.2996 28.34 16.0452 28.34 15.78C28.3298 14.3374 27.8816 12.932 27.0548 11.7498C26.228 10.5676 25.0615 9.66448 23.71 9.16Z" fill="#344054"/>
<path id="Vector_2" d="M10.07 15.83C10.64 2.06 30.27 2.06 30.84 15.83C30.8472 17.2627 30.5613 18.6818 30 20C29.9391 20.1213 29.9036 20.2538 29.8956 20.3893C29.8876 20.5249 29.9073 20.6606 29.9535 20.7883C29.9996 20.9159 30.0713 21.0329 30.1641 21.1319C30.2569 21.231 30.3689 21.3102 30.4933 21.3645C30.6177 21.4189 30.7519 21.4474 30.8876 21.4482C31.0234 21.4491 31.1579 21.4223 31.283 21.3695C31.408 21.3167 31.521 21.2389 31.6151 21.141C31.7091 21.0431 31.7822 20.9271 31.83 20.8C32.6543 18.9132 32.9953 16.8507 32.8223 14.7989C32.6493 12.7472 31.9677 10.7709 30.8391 9.04879C29.7105 7.32663 28.1706 5.91288 26.3584 4.93535C24.5462 3.95782 22.519 3.44732 20.46 3.45C11.7 3.27 5.46 12.9 9.13 20.83C9.23732 21.0703 9.43503 21.2586 9.68026 21.354C9.92549 21.4495 10.1985 21.4445 10.44 21.34C10.5671 21.2918 10.683 21.2183 10.7808 21.1238C10.8785 21.0293 10.9559 20.9159 11.0083 20.7905C11.0607 20.6651 11.087 20.5303 11.0856 20.3944C11.0841 20.2585 11.055 20.1243 11 20C10.4034 18.6898 10.0866 17.2695 10.07 15.83Z" fill="#344054"/>
</g>
</svg>
